<svg width="334" height="70" viewBox="0 0 334 70" fill="none" xmlns="http://www.w3.org/2000/svg">
<path d="M14.6477 30.4205C14.5568 29.5038 14.1667 28.7917 13.4773 28.2841C12.7879 27.7765 11.8523 27.5227 10.6705 27.5227C9.86742 27.5227 9.18939 27.6364 8.63636 27.8636C8.08333 28.0833 7.65909 28.3902 7.36364 28.7841C7.07576 29.178 6.93182 29.625 6.93182 30.125C6.91667 30.5417 7.00379 30.9053 7.19318 31.2159C7.39015 31.5265 7.65909 31.7955 8 32.0227C8.34091 32.2424 8.73485 32.4356 9.18182 32.6023C9.62879 32.7614 10.1061 32.8977 10.6136 33.0114L12.7045 33.5114C13.7197 33.7386 14.6515 34.0417 15.5 34.4205C16.3485 34.7992 17.0833 35.2652 17.7045 35.8182C18.3258 36.3712 18.8068 37.0227 19.1477 37.7727C19.4962 38.5227 19.6742 39.3826 19.6818 40.3523C19.6742 41.7765 19.3106 43.0114 18.5909 44.0568C17.8788 45.0947 16.8485 45.9015 15.5 46.4773C14.1591 47.0455 12.5417 47.3295 10.6477 47.3295C8.76894 47.3295 7.13258 47.0417 5.73864 46.4659C4.35227 45.8902 3.26894 45.0379 2.48864 43.9091C1.71591 42.7727 1.31061 41.3674 1.27273 39.6932H6.03409C6.08712 40.4735 6.31061 41.125 6.70455 41.6477C7.10606 42.1629 7.64015 42.553 8.30682 42.8182C8.98106 43.0758 9.74242 43.2045 10.5909 43.2045C11.4242 43.2045 12.1477 43.0833 12.7614 42.8409C13.3826 42.5985 13.8636 42.2614 14.2045 41.8295C14.5455 41.3977 14.7159 40.9015 14.7159 40.3409C14.7159 39.8182 14.5606 39.3788 14.25 39.0227C13.947 38.6667 13.5 38.3636 12.9091 38.1136C12.3258 37.8636 11.6098 37.6364 10.7614 37.4318L8.22727 36.7955C6.26515 36.3182 4.71591 35.572 3.57955 34.5568C2.44318 33.5417 1.87879 32.1742 1.88636 30.4545C1.87879 29.0455 2.25379 27.8144 3.01136 26.7614C3.77652 25.7083 4.82576 24.8864 6.15909 24.2955C7.49242 23.7045 9.00758 23.4091 10.7045 23.4091C12.4318 23.4091 13.9394 23.7045 15.2273 24.2955C16.5227 24.8864 17.5303 25.7083 18.25 26.7614C18.9697 27.8144 19.3409 29.0341 19.3636 30.4205H14.6477ZM22.1051 27.7841V23.7273H41.2188V27.7841H34.0938V47H29.2301V27.7841H22.1051ZM45.5341 47H40.2614L48.2955 23.7273H54.6364L62.6591 47H57.3864L51.5568 29.0455H51.375L45.5341 47ZM45.2045 37.8523H57.6591V41.6932H45.2045V37.8523ZM84.9006 31.875H79.9233C79.8324 31.2311 79.6468 30.6591 79.3665 30.1591C79.0862 29.6515 78.7263 29.2197 78.2869 28.8636C77.8475 28.5076 77.34 28.2348 76.7642 28.0455C76.196 27.8561 75.5786 27.7614 74.9119 27.7614C73.7074 27.7614 72.6581 28.0606 71.7642 28.6591C70.8703 29.25 70.1771 30.1136 69.6847 31.25C69.1922 32.3788 68.946 33.75 68.946 35.3636C68.946 37.0227 69.1922 38.4167 69.6847 39.5455C70.1847 40.6742 70.8816 41.5265 71.7756 42.1023C72.6695 42.678 73.7036 42.9659 74.8778 42.9659C75.5369 42.9659 76.1468 42.8788 76.7074 42.7045C77.2756 42.5303 77.7794 42.2765 78.2188 41.9432C78.6581 41.6023 79.0218 41.1894 79.3097 40.7045C79.6051 40.2197 79.8097 39.6667 79.9233 39.0455L84.9006 39.0682C84.7718 40.1364 84.4498 41.1667 83.9347 42.1591C83.4271 43.1439 82.7415 44.0265 81.8778 44.8068C81.0218 45.5795 79.9991 46.1932 78.8097 46.6477C77.6278 47.0947 76.2907 47.3182 74.7983 47.3182C72.7225 47.3182 70.8665 46.8485 69.2301 45.9091C67.6013 44.9697 66.3134 43.6098 65.3665 41.8295C64.4271 40.0492 63.9574 37.8939 63.9574 35.3636C63.9574 32.8258 64.4347 30.6667 65.3892 28.8864C66.3438 27.1061 67.6392 25.75 69.2756 24.8182C70.9119 23.8788 72.7528 23.4091 74.7983 23.4091C76.1468 23.4091 77.3968 23.5985 78.5483 23.9773C79.7074 24.3561 80.7339 24.9091 81.6278 25.6364C82.5218 26.3561 83.2491 27.2386 83.8097 28.2841C84.3778 29.3295 84.7415 30.5265 84.9006 31.875ZM87.0653 23.7273H92.5767L97.8835 33.75H98.1108L103.418 23.7273H108.929L100.44 38.7727V47H95.554V38.7727L87.0653 23.7273ZM120.698 26.648C122.127 26.648 123.428 26.8293 124.602 27.192C125.775 27.5333 126.735 28.0453 127.482 28.728C128.826 29.944 129.764 31.2773 130.298 32.728C130.852 34.1573 131.13 35.992 131.13 38.232C131.13 38.7013 131.066 39.128 130.938 39.512C130.831 39.896 130.65 40.3867 130.394 40.984C130.074 41.6453 129.882 42.168 129.818 42.552C129.391 43.2987 128.687 44.0133 127.706 44.696C126.746 45.3787 125.7 45.9333 124.57 46.36C123.439 46.7867 122.447 47 121.594 47C117.476 47 114.543 45.592 112.794 42.776C112.303 41.9867 111.919 41.1653 111.642 40.312C111.386 39.4587 111.258 38.6267 111.258 37.816C111.258 35.64 111.642 33.752 112.41 32.152C113.199 30.5307 114.287 29.272 115.674 28.376C116.506 27.8853 117.37 27.48 118.266 27.16C119.183 26.8187 119.994 26.648 120.698 26.648ZM114.586 37.912C114.586 39.064 114.842 40.0133 115.354 40.76C115.887 41.5067 116.698 42.3173 117.786 43.192C118.682 43.5333 119.29 43.7573 119.61 43.864C119.93 43.9493 120.292 43.992 120.698 43.992C122.852 43.992 124.57 43.4053 125.85 42.232C127.13 41.0587 127.77 39.448 127.77 37.4C127.77 35.7787 127.588 34.4987 127.226 33.56C126.863 32.6213 126.212 31.7787 125.274 31.032C124.783 30.6267 124.154 30.328 123.386 30.136C122.639 29.944 121.828 29.848 120.954 29.848C119.631 29.848 118.49 30.2427 117.53 31.032C116.57 31.8 115.834 32.8027 115.322 34.04C114.831 35.2773 114.586 36.568 114.586 37.912ZM132.852 28.344C132.852 27.4267 133.524 26.968 134.868 26.968C135.444 26.968 136.543 26.9893 138.164 27.032C139.956 27.1173 141.311 27.16 142.228 27.16C142.975 27.16 143.881 27.1173 144.948 27.032C145.673 26.9893 146.132 26.968 146.324 26.968C147.497 27.0107 148.489 27.224 149.3 27.608C149.535 27.7147 149.727 27.8427 149.876 27.992C150.025 28.1413 150.1 28.3867 150.1 28.728C150.1 29.1973 149.951 29.6027 149.652 29.944C149.353 30.264 148.991 30.424 148.564 30.424C148.095 30.424 147.412 30.36 146.516 30.232C145.727 30.0827 145.033 30.008 144.436 30.008C143.86 30.008 143.423 30.0187 143.124 30.04C143.06 30.744 143.028 32.4293 143.028 35.096C143.028 38.2747 143.124 41.496 143.316 44.76L143.38 45.688C143.38 46.5627 142.879 47 141.876 47C141.087 47 140.553 46.8187 140.276 46.456C139.999 46.072 139.86 45.496 139.86 44.728C139.86 43.2133 139.817 41.3253 139.732 39.064C139.647 37.1867 139.604 35.8533 139.604 35.064C139.604 34.5307 139.668 32.8987 139.796 30.168L136.052 30.2C134.857 30.2 134.025 30.0933 133.556 29.88C133.087 29.6453 132.852 29.1333 132.852 28.344ZM154.598 47.096C153.958 47.096 153.51 46.904 153.254 46.52C153.019 46.136 152.902 45.592 152.902 44.888L152.934 40.728L152.902 40.088C152.795 38.0613 152.742 36.3867 152.742 35.064L152.87 31.256L152.902 29.336C152.902 28.696 152.923 28.2053 152.966 27.864C153.008 27.5227 153.147 27.2453 153.382 27.032C153.616 26.8187 153.99 26.712 154.502 26.712C155.142 26.712 155.6 26.872 155.878 27.192C156.155 27.4907 156.294 28.0133 156.294 28.76L156.262 29.432C156.176 31.1387 156.134 32.4293 156.134 33.304C156.134 34.264 156.155 35.3947 156.198 36.696C156.24 37.976 156.272 38.8827 156.294 39.416C156.4 41.6987 156.454 43.6613 156.454 45.304C156.454 45.944 156.315 46.4027 156.038 46.68C155.782 46.9573 155.302 47.096 154.598 47.096ZM174.27 42.936C174.675 42.936 174.974 43.096 175.166 43.416C175.379 43.7147 175.486 44.0453 175.486 44.408C175.486 44.856 175.411 45.176 175.262 45.368C175.134 45.5387 174.867 45.72 174.462 45.912C173.609 46.3173 172.649 46.6053 171.582 46.776C170.537 46.9467 169.225 47.032 167.646 47.032C165.747 47.032 164.286 46.712 163.262 46.072C162.259 45.4107 161.598 44.5893 161.278 43.608C160.958 42.6267 160.798 41.4853 160.798 40.184V38.168C160.798 36.7813 160.83 35.448 160.894 34.168C160.979 32.888 161.139 31.3947 161.374 29.688C161.523 28.664 161.929 27.928 162.59 27.48C163.251 27.0107 163.977 26.776 164.766 26.776C165.619 26.776 166.793 26.7547 168.286 26.712L171.07 26.68C172.201 26.68 173.033 26.712 173.566 26.776C174.206 26.904 174.675 27.0533 174.974 27.224C175.294 27.3733 175.454 27.64 175.454 28.024C175.454 28.4507 175.305 28.8667 175.006 29.272C174.729 29.6773 174.302 29.88 173.726 29.88C173.065 29.88 172.115 29.8373 170.878 29.752C169.641 29.6667 168.713 29.624 168.094 29.624C167.326 29.624 166.707 29.656 166.238 29.72C165.641 29.7627 165.214 29.8373 164.958 29.944C164.702 30.0507 164.553 30.232 164.51 30.488C164.211 32.6853 164.062 34.3067 164.062 35.352C164.531 35.416 165.033 35.448 165.566 35.448C166.249 35.448 167.39 35.3733 168.99 35.224C170.163 35.1173 171.134 35.064 171.902 35.064C172.393 35.064 172.755 35.1493 172.99 35.32C173.225 35.4907 173.342 35.7253 173.342 36.024C173.342 36.4933 173.225 36.856 172.99 37.112C172.755 37.368 172.329 37.56 171.71 37.688C170.963 37.8373 169.993 37.9547 168.798 38.04C167.625 38.1253 166.505 38.168 165.438 38.168C165.033 38.168 164.531 38.1467 163.934 38.104C163.934 39.512 163.998 40.6213 164.126 41.432C164.275 42.2427 164.574 42.872 165.022 43.32C165.491 43.768 166.195 43.992 167.134 43.992C169.246 43.992 170.931 43.8 172.19 43.416C173.086 43.096 173.779 42.936 174.27 42.936ZM192.149 29.016C192.149 28.3973 192.287 27.864 192.565 27.416C192.863 26.9467 193.301 26.712 193.877 26.712C194.367 26.712 194.805 26.808 195.189 27C195.573 27.192 195.765 27.512 195.765 27.96C195.765 28.8347 195.722 30.0613 195.637 31.64C195.551 33.176 195.509 34.3173 195.509 35.064C195.509 36.2373 195.551 37.8053 195.637 39.768C195.722 41.6453 195.765 43.0213 195.765 43.896C195.765 44.6 195.754 45.1227 195.733 45.464C195.733 45.8053 195.541 46.1467 195.157 46.488C194.794 46.808 194.229 46.968 193.461 46.968C193.055 46.968 192.703 46.904 192.405 46.776C192.127 46.6267 191.935 46.4667 191.829 46.296C190.826 45.08 189.365 43.0107 187.445 40.088C185.29 36.824 183.53 34.328 182.165 32.6C182.335 34.136 182.421 36.0133 182.421 38.232C182.421 39.2133 182.399 40.4933 182.357 42.072C182.335 43.6293 182.293 44.6533 182.229 45.144C182.143 45.7627 181.951 46.2427 181.653 46.584C181.375 46.904 180.927 47.064 180.309 47.064C179.839 47.064 179.487 46.936 179.253 46.68C179.039 46.4027 178.911 45.9333 178.869 45.272C178.847 44.3973 178.901 43.0853 179.029 41.336C179.05 41.0587 179.082 40.5787 179.125 39.896C179.167 39.2133 179.189 38.6053 179.189 38.072C179.189 36.6 179.114 34.9147 178.965 33.016C178.837 30.9253 178.773 29.3787 178.773 28.376C178.773 27.864 178.954 27.4693 179.317 27.192C179.701 26.9147 180.138 26.776 180.629 26.776C181.055 26.776 181.503 26.8827 181.973 27.096C183.807 29.4 186.293 32.8347 189.429 37.4L192.437 42.008C192.458 41.6667 192.469 41.1867 192.469 40.568C192.469 39.48 192.447 38.3067 192.405 37.048C192.362 35.7893 192.33 34.936 192.309 34.488C192.202 32.4187 192.149 30.5947 192.149 29.016ZM209.167 26.648C210.596 26.648 211.897 26.8293 213.071 27.192C214.244 27.5333 215.204 28.0453 215.951 28.728C217.295 29.944 218.233 31.2773 218.767 32.728C219.321 34.1573 219.599 35.992 219.599 38.232C219.599 38.7013 219.535 39.128 219.407 39.512C219.3 39.896 219.119 40.3867 218.863 40.984C218.543 41.6453 218.351 42.168 218.287 42.552C217.86 43.2987 217.156 44.0133 216.175 44.696C215.215 45.3787 214.169 45.9333 213.039 46.36C211.908 46.7867 210.916 47 210.063 47C205.945 47 203.012 45.592 201.263 42.776C200.772 41.9867 200.388 41.1653 200.111 40.312C199.855 39.4587 199.727 38.6267 199.727 37.816C199.727 35.64 200.111 33.752 200.879 32.152C201.668 30.5307 202.756 29.272 204.143 28.376C204.975 27.8853 205.839 27.48 206.735 27.16C207.652 26.8187 208.463 26.648 209.167 26.648ZM203.055 37.912C203.055 39.064 203.311 40.0133 203.823 40.76C204.356 41.5067 205.167 42.3173 206.255 43.192C207.151 43.5333 207.759 43.7573 208.079 43.864C208.399 43.9493 208.761 43.992 209.167 43.992C211.321 43.992 213.039 43.4053 214.319 42.232C215.599 41.0587 216.239 39.448 216.239 37.4C216.239 35.7787 216.057 34.4987 215.694 33.56C215.332 32.6213 214.681 31.7787 213.743 31.032C213.252 30.6267 212.623 30.328 211.855 30.136C211.108 29.944 210.297 29.848 209.423 29.848C208.1 29.848 206.959 30.2427 205.999 31.032C205.039 31.8 204.303 32.8027 203.791 34.04C203.3 35.2773 203.055 36.568 203.055 37.912Z" fill="black"/>
</svg>
